<mxfile host="app.diagrams.net" modified="2023-06-12T14:17:46.886Z" agent="Mozilla/5.0 (Windows NT 10.0; Win64; x64) AppleWebKit/537.36 (KHTML, like Gecko) Chrome/114.0.0.0 Safari/537.36" etag="VTv3_ZGOJ2OwbJrd1GGz" version="21.3.8" type="device">
  <diagram name="Page-1" id="nyUcPBeMVLGMZVsGTmsr">
    <mxGraphModel dx="1050" dy="573" grid="1" gridSize="10" guides="1" tooltips="1" connect="1" arrows="1" fold="1" page="1" pageScale="1" pageWidth="850" pageHeight="1100" math="0" shadow="0">
      <root>
        <mxCell id="0" />
        <mxCell id="1" parent="0" />
        <mxCell id="swbByH5NNIw5SoUg-GKH-31" style="edgeStyle=orthogonalEdgeStyle;rounded=0;orthogonalLoop=1;jettySize=auto;html=1;exitX=0.5;exitY=1;exitDx=0;exitDy=0;entryX=0.5;entryY=0;entryDx=0;entryDy=0;" edge="1" parent="1" source="swbByH5NNIw5SoUg-GKH-2" target="swbByH5NNIw5SoUg-GKH-9">
          <mxGeometry relative="1" as="geometry" />
        </mxCell>
        <mxCell id="swbByH5NNIw5SoUg-GKH-2" value="BEGIN" style="ellipse;whiteSpace=wrap;html=1;" vertex="1" parent="1">
          <mxGeometry x="305" y="30" width="120" height="80" as="geometry" />
        </mxCell>
        <mxCell id="swbByH5NNIw5SoUg-GKH-32" style="edgeStyle=orthogonalEdgeStyle;rounded=0;orthogonalLoop=1;jettySize=auto;html=1;entryX=0.5;entryY=0;entryDx=0;entryDy=0;" edge="1" parent="1" source="swbByH5NNIw5SoUg-GKH-9" target="swbByH5NNIw5SoUg-GKH-12">
          <mxGeometry relative="1" as="geometry" />
        </mxCell>
        <mxCell id="swbByH5NNIw5SoUg-GKH-9" value="INPUT N" style="shape=parallelogram;perimeter=parallelogramPerimeter;whiteSpace=wrap;html=1;fixedSize=1;" vertex="1" parent="1">
          <mxGeometry x="294.38" y="150" width="141.25" height="60" as="geometry" />
        </mxCell>
        <mxCell id="swbByH5NNIw5SoUg-GKH-14" value="" style="edgeStyle=orthogonalEdgeStyle;rounded=0;orthogonalLoop=1;jettySize=auto;html=1;" edge="1" parent="1" source="swbByH5NNIw5SoUg-GKH-12" target="swbByH5NNIw5SoUg-GKH-13">
          <mxGeometry relative="1" as="geometry" />
        </mxCell>
        <mxCell id="swbByH5NNIw5SoUg-GKH-12" value="i = 2&lt;br&gt;" style="rounded=0;whiteSpace=wrap;html=1;" vertex="1" parent="1">
          <mxGeometry x="305" y="270" width="120" height="60" as="geometry" />
        </mxCell>
        <mxCell id="swbByH5NNIw5SoUg-GKH-17" style="edgeStyle=orthogonalEdgeStyle;rounded=0;orthogonalLoop=1;jettySize=auto;html=1;entryX=0.5;entryY=0;entryDx=0;entryDy=0;" edge="1" parent="1" source="swbByH5NNIw5SoUg-GKH-13" target="swbByH5NNIw5SoUg-GKH-16">
          <mxGeometry relative="1" as="geometry" />
        </mxCell>
        <mxCell id="swbByH5NNIw5SoUg-GKH-26" style="edgeStyle=orthogonalEdgeStyle;rounded=0;orthogonalLoop=1;jettySize=auto;html=1;exitX=1;exitY=0.5;exitDx=0;exitDy=0;" edge="1" parent="1" source="swbByH5NNIw5SoUg-GKH-13" target="swbByH5NNIw5SoUg-GKH-25">
          <mxGeometry relative="1" as="geometry" />
        </mxCell>
        <mxCell id="swbByH5NNIw5SoUg-GKH-13" value="i &amp;lt; N" style="rhombus;whiteSpace=wrap;html=1;rounded=0;" vertex="1" parent="1">
          <mxGeometry x="302.5" y="400" width="125" height="90" as="geometry" />
        </mxCell>
        <mxCell id="swbByH5NNIw5SoUg-GKH-29" style="edgeStyle=orthogonalEdgeStyle;rounded=0;orthogonalLoop=1;jettySize=auto;html=1;exitX=1;exitY=0.5;exitDx=0;exitDy=0;entryX=0.5;entryY=1;entryDx=0;entryDy=0;" edge="1" parent="1" source="swbByH5NNIw5SoUg-GKH-15" target="swbByH5NNIw5SoUg-GKH-27">
          <mxGeometry relative="1" as="geometry" />
        </mxCell>
        <mxCell id="swbByH5NNIw5SoUg-GKH-15" value="Output False" style="shape=parallelogram;perimeter=parallelogramPerimeter;whiteSpace=wrap;html=1;fixedSize=1;" vertex="1" parent="1">
          <mxGeometry x="500" y="565" width="120" height="60" as="geometry" />
        </mxCell>
        <mxCell id="swbByH5NNIw5SoUg-GKH-20" value="" style="edgeStyle=orthogonalEdgeStyle;rounded=0;orthogonalLoop=1;jettySize=auto;html=1;" edge="1" parent="1" source="swbByH5NNIw5SoUg-GKH-16" target="swbByH5NNIw5SoUg-GKH-19">
          <mxGeometry relative="1" as="geometry" />
        </mxCell>
        <mxCell id="swbByH5NNIw5SoUg-GKH-23" style="edgeStyle=orthogonalEdgeStyle;rounded=0;orthogonalLoop=1;jettySize=auto;html=1;entryX=0;entryY=0.5;entryDx=0;entryDy=0;" edge="1" parent="1" source="swbByH5NNIw5SoUg-GKH-16" target="swbByH5NNIw5SoUg-GKH-15">
          <mxGeometry relative="1" as="geometry" />
        </mxCell>
        <mxCell id="swbByH5NNIw5SoUg-GKH-16" value="N % i == 0" style="rhombus;whiteSpace=wrap;html=1;rounded=0;" vertex="1" parent="1">
          <mxGeometry x="302.51" y="550" width="125" height="90" as="geometry" />
        </mxCell>
        <mxCell id="swbByH5NNIw5SoUg-GKH-18" value="T" style="text;html=1;align=center;verticalAlign=middle;resizable=0;points=[];autosize=1;strokeColor=none;fillColor=none;" vertex="1" parent="1">
          <mxGeometry x="335" y="498" width="30" height="30" as="geometry" />
        </mxCell>
        <mxCell id="swbByH5NNIw5SoUg-GKH-21" style="edgeStyle=orthogonalEdgeStyle;rounded=0;orthogonalLoop=1;jettySize=auto;html=1;entryX=0;entryY=0.5;entryDx=0;entryDy=0;" edge="1" parent="1" source="swbByH5NNIw5SoUg-GKH-19" target="swbByH5NNIw5SoUg-GKH-13">
          <mxGeometry relative="1" as="geometry">
            <Array as="points">
              <mxPoint x="210" y="765" />
              <mxPoint x="210" y="445" />
            </Array>
          </mxGeometry>
        </mxCell>
        <mxCell id="swbByH5NNIw5SoUg-GKH-19" value="i ++" style="whiteSpace=wrap;html=1;rounded=0;" vertex="1" parent="1">
          <mxGeometry x="305.01" y="735" width="120" height="60" as="geometry" />
        </mxCell>
        <mxCell id="swbByH5NNIw5SoUg-GKH-22" value="F" style="text;html=1;align=center;verticalAlign=middle;resizable=0;points=[];autosize=1;strokeColor=none;fillColor=none;" vertex="1" parent="1">
          <mxGeometry x="335" y="668" width="30" height="30" as="geometry" />
        </mxCell>
        <mxCell id="swbByH5NNIw5SoUg-GKH-24" value="T" style="text;html=1;align=center;verticalAlign=middle;resizable=0;points=[];autosize=1;strokeColor=none;fillColor=none;" vertex="1" parent="1">
          <mxGeometry x="445" y="598" width="30" height="30" as="geometry" />
        </mxCell>
        <mxCell id="swbByH5NNIw5SoUg-GKH-28" style="edgeStyle=orthogonalEdgeStyle;rounded=0;orthogonalLoop=1;jettySize=auto;html=1;entryX=0.5;entryY=0;entryDx=0;entryDy=0;" edge="1" parent="1" source="swbByH5NNIw5SoUg-GKH-25" target="swbByH5NNIw5SoUg-GKH-27">
          <mxGeometry relative="1" as="geometry" />
        </mxCell>
        <mxCell id="swbByH5NNIw5SoUg-GKH-25" value="Output True" style="shape=parallelogram;perimeter=parallelogramPerimeter;whiteSpace=wrap;html=1;fixedSize=1;" vertex="1" parent="1">
          <mxGeometry x="500" y="415" width="120" height="60" as="geometry" />
        </mxCell>
        <mxCell id="swbByH5NNIw5SoUg-GKH-27" value="END" style="ellipse;whiteSpace=wrap;html=1;" vertex="1" parent="1">
          <mxGeometry x="690" y="475" width="120" height="80" as="geometry" />
        </mxCell>
        <mxCell id="swbByH5NNIw5SoUg-GKH-30" value="F" style="text;html=1;align=center;verticalAlign=middle;resizable=0;points=[];autosize=1;strokeColor=none;fillColor=none;" vertex="1" parent="1">
          <mxGeometry x="445" y="445" width="30" height="30" as="geometry" />
        </mxCell>
      </root>
    </mxGraphModel>
  </diagram>
</mxfile>
